<svg xmlns="http://www.w3.org/2000/svg" viewBox="0 0 64 64">
  <style>.ink{fill:#10151c}.line{stroke:#10151c}@media (prefers-color-scheme:dark){.ink{fill:#e6e9ee}.line{stroke:#e6e9ee}}</style>
  <path class="line" fill="none" stroke-width="3" stroke-linecap="round" d="M3.5 23.2V7.5a4 4 0 0 1 4-4h49a4 4 0 0 1 4 4v15.7M60.5 40.1v16.4a4 4 0 0 1-4 4h-49a4 4 0 0 1-4-4V40.1"/>
  <path class="ink" fill-rule="evenodd" d="M7.8 22.2h11.3v3.1h-7.9v3.7h7v3h-7v6.5H7.8z M20.6 22.2H29c3.2 0 5 1.8 5 4.2 0 1.9-1.1 3.2-2.6 3.7 2 .5 3.4 2.1 3.4 4.3 0 2.6-2 4.1-5.2 4.1h-9z M24 25.1h4.8c1.3 0 1.9.7 1.9 1.8s-.6 1.9-1.9 1.9H24z M24 31.6h5.2c1.5 0 2.2.8 2.2 2.1 0 1.2-.7 1.9-2.2 1.9H24z"/>
  <rect x="7.2" y="42" width="17" height="17" rx="2.4" fill="#d8a44a"/>
</svg>
